<?xml version="1.0" encoding="UTF-8"?>
<svg id="Layer_1" data-name="Layer 1" xmlns="http://www.w3.org/2000/svg" viewBox="0 0 15.79 13.98">
  <defs>
    <style>
      .cls-1 {
        fill: #0e2426;
        stroke-width: 0px;
      }
    </style>
  </defs>
  <path class="cls-1" d="M5.73,11.86s0,0,0,0c0,0,.01,0,.02,0h-.02Z"/>
  <path class="cls-1" d="M10.04,11.86s.01,0,.02,0c0,0,0,0,0,0h-.02Z"/>
  <path class="cls-1" d="M15.11,3.14c-.45-.93-1.09-1.69-1.92-2.27-.83-.58-1.76-.87-2.79-.87-.91,0-1.75.23-2.5.69-.76-.46-1.59-.69-2.5-.69-1.03,0-1.96.29-2.79.87-.83.58-1.47,1.34-1.92,2.27-.45.93-.68,1.92-.68,2.97,0,1.48.42,2.79,1.25,3.91.83,1.12,1.88,1.82,3.15,2.1.47.1.91.02,1.33-.25-.12.02-.23.03-.34.03-.65,0-1.25-.27-1.81-.8-.56-.54-1-1.25-1.33-2.13-.32-.88-.49-1.83-.49-2.85,0-.58.07-1.2.22-1.85.15-.65.36-1.27.64-1.87.28-.6.66-1.09,1.15-1.48.48-.39,1.02-.58,1.62-.58s1.13.19,1.62.58c.09.07.18.16.26.24-.67.54-1.2,1.2-1.58,2-.45.93-.68,1.92-.68,2.97,0,.51.06,1.02.17,1.51.11.5.32,1.02.62,1.57.3.55.67,1.07,1.13,1.55.12.13.26.26.4.38-.75.81-1.75,1.41-3.01,1.81-.55.17-1.25.27-2.12.31,0,.21.07.38.21.52.14.14.32.21.52.21h9.94c.21,0,.38-.07.52-.21.14-.14.21-.32.21-.52-.87-.03-1.57-.14-2.12-.31-1.26-.39-2.26-1-3.01-1.81.14-.13.28-.25.4-.38.46-.48.83-1,1.13-1.55.3-.55.5-1.08.62-1.57.11-.5.17-1,.17-1.51,0-1.05-.23-2.04-.68-2.97-.39-.8-.92-1.46-1.58-2,.08-.08.17-.16.26-.24.48-.39,1.02-.58,1.62-.58s1.13.19,1.62.58c.48.39.87.88,1.15,1.48.28.6.49,1.22.64,1.87.15.65.22,1.27.22,1.85,0,1.02-.16,1.96-.49,2.85-.33.88-.77,1.59-1.33,2.13-.56.54-1.16.8-1.81.8-.11,0-.22-.01-.34-.03.42.27.86.36,1.33.25,1.27-.27,2.32-.97,3.15-2.1.83-1.12,1.25-2.43,1.25-3.91,0-1.05-.23-2.04-.68-2.97ZM8.71,12.13c.74.44,1.58.82,2.52,1.11h-3.32s-.02,0-.02,0c0,0-.02,0-.02,0h-3.32c.95-.3,1.79-.67,2.52-1.11.3-.18.57-.36.82-.55.25.19.52.37.82.55ZM8.79,4.26c.15.65.22,1.27.22,1.85,0,1.74-.38,3.17-1.12,4.3-.75-1.13-1.12-2.56-1.12-4.3,0-.58.07-1.2.22-1.85.15-.65.36-1.27.64-1.87.08-.17.17-.32.26-.47.09.15.18.31.26.47.28.6.49,1.22.64,1.87Z"/>
</svg>